<?xml version="1.0" encoding="UTF-8"?>
<svg width="87px" height="15px" viewBox="0 0 87 15" version="1.1" xmlns="http://www.w3.org/2000/svg" xmlns:xlink="http://www.w3.org/1999/xlink">
    <title>Group 4@1,5x</title>
    <g id="Page-1" stroke="none" stroke-width="1" fill="none" fill-rule="evenodd">
        <g id="Guide" transform="translate(-483.000000, -831.000000)" fill="#FF0000" fill-rule="nonzero">
            <g id="Group-4" transform="translate(483.000000, 831.000000)">
                <path d="M33.3180376,5.26581107 L28.683786,4.53399175 C28.683786,4.53399175 27.4956731,1.88164657 26.7273737,0.578968174 C25.9580553,-0.723710218 25.3996626,0.578968174 25.3996626,0.578968174 L23.3260694,4.53399175 L18.598073,5.21982243 C17.3875429,5.76868692 18.3891852,6.56948922 18.3891852,6.56948922 L21.6254172,9.65272802 L20.8326627,14.1786107 C20.6696283,15.5262779 22.0910841,14.7954584 22.0910841,14.7954584 L26.0263259,12.8289439 L30.0349332,14.8404473 C31.4095167,15.457295 31.1527375,14.0866334 31.1527375,14.0866334 L30.4527088,9.67572234 L33.597234,6.54549514 C34.6447297,5.58373259 33.3180376,5.26581107 33.3180376,5.26581107 Z" id="Path"></path>
                <path d="M68.3180376,5.26516225 L63.683786,4.53329414 C63.683786,4.53329414 62.4956731,1.88177199 61.7273737,0.579006765 C60.9580553,-0.723758456 60.3996626,0.579006765 60.3996626,0.579006765 L58.3260694,4.53329414 L53.598073,5.21917053 C52.3875429,5.76807161 53.3891852,6.56892729 53.3891852,6.56892729 L56.6254172,9.6523716 L55.8326627,14.1785559 C55.6696283,15.526313 57.0910841,14.7954447 57.0910841,14.7954447 L61.0263259,12.8287992 L65.0349332,14.8404366 C66.4095167,15.4573255 66.1527375,14.0865725 66.1527375,14.0865725 L65.4527088,9.67536746 L68.597234,6.54493161 C69.6447297,5.58310495 68.3180376,5.26516225 68.3180376,5.26516225 Z" id="Path"></path>
                <path d="M51.3180376,5.26581107 L46.683786,4.53399175 C46.683786,4.53399175 45.4956731,1.88164657 44.7273737,0.578968174 C43.9580553,-0.723710218 43.3996626,0.578968174 43.3996626,0.578968174 L41.3260694,4.53399175 L36.598073,5.21982243 C35.3875429,5.76868692 36.3891852,6.56948922 36.3891852,6.56948922 L39.6254172,9.65272802 L38.8326627,14.1786107 C38.6696283,15.5262779 40.0910841,14.7954584 40.0910841,14.7954584 L44.0263259,12.8289439 L48.0349332,14.8404473 C49.4095167,15.457295 49.1527375,14.0866334 49.1527375,14.0866334 L48.4527088,9.67572234 L51.597234,6.54549514 C52.6447297,5.58373259 51.3180376,5.26581107 51.3180376,5.26581107 Z" id="Path"></path>
                <path d="M15.3176118,5.26581107 L10.683489,4.53399175 C10.683489,4.53399175 9.49540914,1.88164657 8.72713108,0.578968174 C7.95783409,-0.723710218 7.39945693,0.578968174 7.39945693,0.578968174 L5.32592133,4.53399175 L0.598056353,5.21982243 C-0.61244011,5.76868692 0.389174388,6.56948922 0.389174388,6.56948922 L3.62531645,9.65272802 L2.83258391,14.1786107 C2.66955409,15.5262779 4.09097039,14.7954584 4.09097039,14.7954584 L8.02610283,12.8289439 L12.0345987,14.8404473 C13.4091439,15.457295 13.1523719,14.0866334 13.1523719,14.0866334 L12.4523626,9.67572234 L15.5968004,6.54549514 C16.645286,5.58373259 15.3176118,5.26581107 15.3176118,5.26581107 Z" id="Path"></path>
                <path d="M86.3180376,5.26532221 L81.683786,4.53443172 C81.683786,4.53443172 80.4956731,1.88182916 79.7273737,0.579024356 C78.9580553,-0.723780445 78.3996626,0.579024356 78.3996626,0.579024356 L76.3260694,4.53443172 L71.598073,5.2193291 C70.3875429,5.76824686 71.3891852,6.56812701 71.3891852,6.56812701 L74.6254172,9.65266485 L73.8326627,14.1779868 C73.6696283,15.5267847 75.0910841,14.7948944 75.0910841,14.7948944 L79.0263259,12.8291889 L83.0349332,14.8408875 C84.4095167,15.4567952 84.1527375,14.0860006 84.1527375,14.0860006 L83.4527088,9.67466156 L86.597234,6.54413061 C87.6447297,5.58327457 86.3180376,5.26532221 86.3180376,5.26532221 Z" id="Path"></path>
            </g>
        </g>
    </g>
</svg>