<?xml version="1.0" encoding="UTF-8"?>
<svg width="28px" height="31px" viewBox="0 0 28 31" version="1.1" xmlns="http://www.w3.org/2000/svg" xmlns:xlink="http://www.w3.org/1999/xlink">
    <title>Group@1,5x</title>
    <g id="Page-1" stroke="none" stroke-width="1" fill="none" fill-rule="evenodd">
        <g id="Guide" transform="translate(-303.000000, -823.000000)" fill="#FF0000" fill-rule="nonzero">
            <g id="Group" transform="translate(303.000000, 823.000000)">
                <path d="M10.4102564,0 C8.61538462,7.04545374 6.1025641,8.80681718 0,10.9204533 L0,15.8522744 L12.9230769,31 L12.9230769,26.4204551 C18.3076923,24.6590916 21.5384615,20.7840921 23.6923077,16.2045471 L10.4102564,0 Z M13.2820513,31 C20.1025641,29.2386366 24.7692308,27.4772731 26.9230769,26.4204551 L26.9230769,22.5564464 C23.6026933,25.1532598 17.2728338,28.7945968 13.2820513,30.2954546 L13.2820513,31 Z M14,1.76135991 L13.3269231,2.4218712 L24.2532051,15.7531801 C24.4190764,15.9569699 24.4552682,16.2543937 24.3429487,16.4907687 C22.1558005,21.1411204 18.8094021,25.2727507 13.2820513,27.1250004 L13.2932513,27.917614 C19.036841,26.5085232 23.3333154,21.4886374 27.2820333,16.9090925 L13.9999821,1.76135991 L14,1.76135991 Z M11.3076744,5.16299305 L14.1794692,8.33344723 C14.3612395,8.53687062 14.4070913,8.84734263 14.2916487,9.09303522 C12.8056528,12.3741101 10.8425836,14.3136037 7.8637641,15.7751972 C7.58186513,15.9147676 7.20790359,15.8432563 7,15.610087 L3.76923077,12.0873531 C3.44875282,11.7336361 3.64255231,11.0743401 4.10576923,10.9424668 C7.57774769,9.92031944 8.70825128,8.80465423 10.1073718,5.37215496 C10.5250744,4.837789 10.7802692,4.82200366 11.3076744,5.16299305 Z M10.9375,6.8803224 C9.71289128,9.43498631 8.15512205,10.9250786 5.53044872,11.9002082 L7.68429487,14.2450233 C10.0177467,13.0098953 11.5234467,11.5116937 12.7772436,8.91689887 L10.9375,6.8803224 Z M26.3060897,19.1217877 C22.9835595,22.9051259 18.0500026,27.3454879 13.2820513,28.8863639 L13.2820513,29.5909093 C18.6666667,28.1818185 23.6923077,24.3068189 28,20.7840921 L26.3060897,19.1217877 Z" id="Shape"></path>
            </g>
        </g>
    </g>
</svg>