<?xml version="1.0" encoding="UTF-8"?>
<svg width="16px" height="15px" viewBox="0 0 16 15" version="1.1" xmlns="http://www.w3.org/2000/svg" xmlns:xlink="http://www.w3.org/1999/xlink">
    <title>Path@1,5x</title>
    <g id="Page-1" stroke="none" stroke-width="1" fill="none" fill-rule="evenodd">
        <g id="Guide" transform="translate(-554.000000, -831.000000)" fill="#FF0000" fill-rule="nonzero">
            <g id="Group-4" transform="translate(483.000000, 831.000000)">
                <path d="M86.3180376,5.26532221 L81.683786,4.53443172 C81.683786,4.53443172 80.4956731,1.88182916 79.7273737,0.579024356 C78.9580553,-0.723780445 78.3996626,0.579024356 78.3996626,0.579024356 L76.3260694,4.53443172 L71.598073,5.2193291 C70.3875429,5.76824686 71.3891852,6.56812701 71.3891852,6.56812701 L74.6254172,9.65266485 L73.8326627,14.1779868 C73.6696283,15.5267847 75.0910841,14.7948944 75.0910841,14.7948944 L79.0263259,12.8291889 L83.0349332,14.8408875 C84.4095167,15.4567952 84.1527375,14.0860006 84.1527375,14.0860006 L83.4527088,9.67466156 L86.597234,6.54413061 C87.6447297,5.58327457 86.3180376,5.26532221 86.3180376,5.26532221 Z" id="Path"></path>
            </g>
        </g>
    </g>
</svg>